<svg xmlns="http://www.w3.org/2000/svg" viewBox="0 0 56 56"><defs><style>.cls-1{fill:#1998d5;}.cls-2,.cls-3,.cls-4{fill:none;}.cls-2,.cls-3{stroke:#1998d5;stroke-miterlimit:10;}.cls-2{stroke-width:3.3px;}.cls-3{stroke-linecap:round;stroke-width:3px;}</style></defs><title>glyph-lock_1</title><g id="Layer_2" data-name="Layer 2"><g id="Artboard_01" data-name="Artboard 01"><path class="cls-1" d="M28,34.8h0a1.88,1.88,0,0,1,1.88,1.88v4.07a1.57,1.57,0,0,1-1.57,1.57h-.61a1.57,1.57,0,0,1-1.57-1.57V36.68A1.88,1.88,0,0,1,28,34.8Z"/><rect class="cls-2" x="8.85" y="25.61" width="38.31" height="25.89" rx="2.89" ry="2.89"/><path class="cls-3" d="M18,18.17V9.68A3.18,3.18,0,0,1,21.16,6.5H34.84A3.18,3.18,0,0,1,38,9.68v8.49"/><rect id="Bounding_Box" data-name="Bounding Box" class="cls-4" width="56" height="56"/></g></g></svg>