<svg xmlns="http://www.w3.org/2000/svg" viewBox="0 0 56 56"><defs><style>.cls-1{fill:#1998d5;}.cls-2{fill:none;}</style></defs><title>glpyh-female</title><g id="Layer_2" data-name="Layer 2"><g id="Artboard_06" data-name="Artboard 06"><path class="cls-1" d="M15.61,49a1.91,1.91,0,0,1-1.91-1.9V44.43H11.08a1.91,1.91,0,0,1,0-3.81H13.7V37.94a12,12,0,0,1-7.37-4.32,11.8,11.8,0,0,1-2.47-9.08A11.93,11.93,0,0,1,14.33,14.43a12.29,12.29,0,0,1,1.28-.07,11.86,11.86,0,0,1,1.91,23.58v2.68h2.62a1.91,1.91,0,0,1,0,3.81H17.51v2.62A1.91,1.91,0,0,1,15.61,49Zm0-30.78a8.06,8.06,0,0,0-1.37,16,8.58,8.58,0,0,0,1.37.11,8.06,8.06,0,0,0,1.37-16A8.47,8.47,0,0,0,15.61,18.18Z"/><path class="cls-1" d="M26.47,26.23A10.87,10.87,0,1,0,14.7,37.06v4.56H11.08a.9.9,0,0,0-.9.9h0a.9.9,0,0,0,.9.9H14.7v3.62a.9.9,0,0,0,.9.9h0a.9.9,0,0,0,.9-.9V43.43h3.62a.9.9,0,0,0,.9-.9h0a.9.9,0,0,0-.9-.9H16.51V37.06A10.88,10.88,0,0,0,26.47,26.23ZM6.68,27.76a9.06,9.06,0,1,1,7.39,7.39A9.07,9.07,0,0,1,6.68,27.76Z"/><path class="cls-1" d="M41.5,45.88a12.78,12.78,0,0,1-2-25.41l0-6.38-1.37,1.37a1.85,1.85,0,0,1-2.62,0l-.33-.33a1.85,1.85,0,0,1,0-2.62l4.93-4.93A1.85,1.85,0,0,1,41.46,7h0a1.85,1.85,0,0,1,1.32.54l4.93,4.93a1.85,1.85,0,0,1,0,2.62l-.33.33a1.85,1.85,0,0,1-2.62,0l-1.33-1.33,0,6.35A12.44,12.44,0,0,1,52.74,27a13,13,0,0,1-1.3,14.19A12.8,12.8,0,0,1,41.5,45.88Zm0-21.55A8.75,8.75,0,1,0,48.65,28,8.71,8.71,0,0,0,41.5,24.33Z"/><path class="cls-1" d="M35.92,14.43l.33.33a.85.85,0,0,0,1.21,0l3.09-3.09,0,9.68A11.79,11.79,0,1,0,50.66,40.53a11.93,11.93,0,0,0,1.19-13.08,11.57,11.57,0,0,0-9.38-6.07l-.06-9.67,3.06,3.06a.85.85,0,0,0,1.21,0l.33-.33a.85.85,0,0,0,0-1.21L42.07,8.3a.86.86,0,0,0-1.22,0l-4.93,4.93A.85.85,0,0,0,35.92,14.43ZM49.47,38.7a9.76,9.76,0,1,1,0-11.26A9.77,9.77,0,0,1,49.47,38.7Z"/><rect id="Bounding_Box" data-name="Bounding Box" class="cls-2" width="56" height="56"/></g></g></svg>