<svg xmlns="http://www.w3.org/2000/svg" viewBox="0 0 56 56"><defs><style>.cls-1,.cls-2,.cls-3,.cls-4{fill:none;}.cls-1,.cls-2,.cls-3{stroke:#1998d5;stroke-width:3px;}.cls-1,.cls-2{stroke-miterlimit:10;}.cls-2{stroke-linecap:round;}.cls-3{stroke-linejoin:round;}</style></defs><title>glpyh-safe</title><g id="Layer_2" data-name="Layer 2"><g id="Artboard_02" data-name="Artboard 02"><circle class="cls-1" cx="28" cy="16.41" r="9.9"/><path class="cls-2" d="M46.36,49.5a18.33,18.33,0,0,0-.86-5.56"/><path class="cls-2" d="M9.64,49.5A18.36,18.36,0,0,1,28,31.14l.88,0"/><path class="cls-3" d="M44.69,32.92a2.75,2.75,0,0,0-3.9,0l-.67.67-.67-.67a2.76,2.76,0,1,0-3.9,3.9l.67.67,3.9,3.9,3.9-3.9.67-.67A2.75,2.75,0,0,0,44.69,32.92Z"/><rect id="Bounding_Box" data-name="Bounding Box" class="cls-4" width="56" height="56"/></g></g></svg>