<svg xmlns="http://www.w3.org/2000/svg" viewBox="0 0 56 56"><defs><style>.cls-1,.cls-3{fill:#1998d5;}.cls-2{fill:#1a98d5;}.cls-2,.cls-3,.cls-4{stroke:#1998d5;stroke-miterlimit:10;stroke-width:3px;}.cls-4,.cls-5{fill:none;}</style></defs><title>glyph-steal</title><g id="Layer_2" data-name="Layer 2"><g id="Artboard_07" data-name="Artboard 07"><g id="Glasses"><path class="cls-1" d="M35.35,19.71c-6.36-4.47-12.61,0-12.61,0v3s6.25-4.47,12.61,0Z"/><path class="cls-2" d="M24.21,18.55a7,7,0,0,0-5.71-3.68l-1.19,0a7.17,7.17,0,0,0-6.39,5.57H8.69A1.58,1.58,0,0,0,7.11,22h0a1.58,1.58,0,0,0,1.58,1.58h2.24a6.93,6.93,0,0,0,1.17,2.59,7.18,7.18,0,0,0,11.38.33A7.26,7.26,0,0,0,24.21,18.55Zm-1.45,6.84a5.94,5.94,0,0,1-9.69,0,5.67,5.67,0,0,1-.86-1.81,5.87,5.87,0,0,1,0-3.16,5.71,5.71,0,0,1,.88-1.87,5.93,5.93,0,1,1,9.69,6.84Z"/><path class="cls-3" d="M47.17,20.42a7.51,7.51,0,0,0-.69-1.87,7,7,0,0,0-5.71-3.68l-1.19,0A7.16,7.16,0,1,0,45.76,26.5a6.94,6.94,0,0,0,1.41-2.92h3.1A1.58,1.58,0,0,0,51.84,22h0a1.58,1.58,0,0,0-1.58-1.58Zm-2.14,5a5.93,5.93,0,1,1,0-6.84,5.71,5.71,0,0,1,.88,1.87,5.87,5.87,0,0,1,0,3.16A5.67,5.67,0,0,1,45,25.39Z"/></g><path class="cls-4" d="M38.44,37.56a6.3,6.3,0,0,0-8.93.72.05.05,0,0,1-.08,0,6.3,6.3,0,0,0-8.93-.72h0c-4.58,4.58-7.55,2.92-8.37,2.28a.09.09,0,0,0-.13.1c.53,1.48,3.14,7.85,8.7,8S29,44.7,29.41,44a.07.07,0,0,1,.12,0c.46.66,3.05,4,8.73,3.87s8.17-6.49,8.7-8a.09.09,0,0,0-.13-.1c-.83.64-3.79,2.3-8.37-2.28Z"/><rect id="Bounding_Box" data-name="Bounding Box" class="cls-5" width="56" height="56"/></g></g></svg>