<svg xmlns="http://www.w3.org/2000/svg" viewBox="0 0 56 56"><defs><style>.cls-1,.cls-2{fill:none;}.cls-1{stroke:#2390cd;stroke-miterlimit:10;stroke-width:3px;}</style></defs><title>glyph-protect</title><g id="Layer_2" data-name="Layer 2"><g id="Artboard_08" data-name="Artboard 08"><path class="cls-1" d="M44.5,13.47A1.41,1.41,0,0,0,43,12.14a28.07,28.07,0,0,1-4,0C33.64,11.82,29.86,8,29,8s-4.64,3.78-10,4.08a28.07,28.07,0,0,1-4,0,1.41,1.41,0,0,0-1.54,1.32c-.29,4.38-.69,16,2.54,21.7S25.86,46,28.17,47.69a1.41,1.41,0,0,0,1.66,0C32.14,46,38.68,41,42,35.17S44.79,17.84,44.5,13.47Z"/><rect id="Bounding_Box" data-name="Bounding Box" class="cls-2" width="56" height="56"/></g></g></svg>